<?xml version="1.0" encoding="utf-8"?>
<!DOCTYPE svg PUBLIC "-//W3C//DTD SVG 20010904//EN" "http://www.w3.org/TR/2001/REC-SVG-20010904/DTD/svg10.dtd">
<svg version="1.0" xmlns="http://www.w3.org/2000/svg" width="32pt" height="32pt" viewBox="0 0 32 32" style="" preserveAspectRatio="xMidYMid meet">
<g fill="#00A1D6FF" stroke="#00A1D6FF">
<path d="M 5.380 2.452 C 5.074 3.251 5.114 4.376 5.470 4.952 C 5.833 5.539 5.300 6.000 4.259 6.000 C 3.237 6.000 1.860 6.540 1.200 7.200 C -0.434 8.834 -0.434 27.166 1.200 28.800 C 2.869 30.469 29.131 30.469 30.800 28.800 C 32.434 27.166 32.434 8.834 30.800 7.200 C 30.140 6.540 28.867 6.000 27.971 6.000 C 26.924 6.000 26.370 5.195 26.421 3.750 C 26.536 0.488 22.982 0.326 20.039 3.458 C 17.033 6.658 14.977 6.669 12.000 3.500 C 9.392 0.723 6.235 0.224 5.380 2.452 M 26.800 11.200 C 28.358 12.758 28.358 23.242 26.800 24.800 C 25.166 26.434 6.834 26.434 5.200 24.800 C 3.642 23.242 3.642 12.758 5.200 11.200 C 6.834 9.566 25.166 9.566 26.800 11.200 "/></g>
<g fill="#00A1D6FF" stroke="#00A1D6FF">
<path d="M 20.000 17.000 C 20.000 19.333 20.444 20.000 22.000 20.000 C 23.556 20.000 24.000 19.333 24.000 17.000 C 24.000 14.667 23.556 14.000 22.000 14.000 C 20.444 14.000 20.000 14.667 20.000 17.000 "/></g>
<g fill="#00A1D6FF" stroke="#00A1D6FF">
<path d="M 8.000 17.000 C 8.000 19.333 8.444 20.000 10.000 20.000 C 11.556 20.000 12.000 19.333 12.000 17.000 C 12.000 14.667 11.556 14.000 10.000 14.000 C 8.444 14.000 8.000 14.667 8.000 17.000 "/></g>
</svg>
